<?xml version="1.0" encoding="UTF-8"?>
<!DOCTYPE svg PUBLIC "-//W3C//DTD SVG 1.1//EN"
  "http://www.w3.org/Graphics/SVG/1.1/DTD/svg11.dtd">
<!-- Created with Inkpad (http://inkpad.envoza.com/) --><svg height="612pt" viewBox="199,90,440,440" xmlns:xlink="http://www.w3.org/1999/xlink" xmlns="http://www.w3.org/2000/svg" width="792pt" xmlns:inkscape="http://www.inkscape.org/namespaces/inkscape" version="1.1" xmlns:inkpad="http://inkpad.envoza.com/svg_extensions">
<defs/>
<g id="Ebene 1" inkscape:label="Ebene 1" inkscape:groupmode="layer" inkpad:layerName="Ebene 1">
<path stroke="#ffffff" stroke-width="17" d="M537.701+159.965L619.357+159.965C625.287+159.965+630.095+164.772+630.095+170.703L630.095+295.262C630.095+301.192+625.287+306+619.357+306L219.479+306C213.548+306+208.74+301.192+208.74+295.262L208.74+170.703C208.74+164.772+213.548+159.965+219.479+159.965L301.4+159.965" fill="none" stroke-linecap="round" opacity="1" stroke-linejoin="round"/>
<path stroke="#ffffff" stroke-width="17" d="M331.266+121.53L507.833+121.53C524.327+121.53+537.905+137.207+537.698+151.396C537.492+165.585+534.448+171.673+524.404+189.63C514.36+207.588+505.926+214.963+492.348+214.963L346.998+214.963C333.42+214.963+324.435+209.11+313.477+189.63C302.52+170.151+301.498+165.513+301.4+151.396C301.303+137.279+314.772+121.53+331.266+121.53Z" fill="none" stroke-linecap="round" opacity="1" stroke-linejoin="round"/>
<path stroke="#ffffff" stroke-width="17" d="M339.233+145.494L338.822+179.587" fill="#ffffff" stroke-linecap="round" opacity="1" stroke-linejoin="round"/>
<path stroke="#ffffff" stroke-width="17" d="M365.339+145.494L364.928+179.587" fill="#ffffff" stroke-linecap="round" opacity="1" stroke-linejoin="round"/>
<path stroke="#ffffff" stroke-width="17" d="M392.813+145.494L392.402+179.587" fill="#ffffff" stroke-linecap="round" opacity="1" stroke-linejoin="round"/>
<path stroke="#ffffff" stroke-width="17" d="M330.31+209.554L506.219+210.099" fill="#ffffff" stroke-linecap="round" opacity="1" stroke-linejoin="round"/>
<path stroke="#ffffff" stroke-width="17" d="M318.008+452.334L317.945+395.656L317.914+343.125L317.883+306L270.664+306C269.624+378.852+287.049+441.02+294.258+476.406C301.466+511.792+318.008+506.119+318.008+506.119" fill="none" stroke-linecap="round" opacity="1" stroke-linejoin="round"/>
<path stroke="#ffffff" stroke-width="17" d="M320.065+453.674L332.18+458.663L332.076+505.396L315.191+505.396" fill="none" stroke-linecap="round" opacity="1" stroke-linejoin="round"/>
<path stroke="#ffffff" stroke-width="17" d="M521.093+452.454L521.155+395.656L521.186+343.125L521.218+306L568.436+306C569.477+378.852+552.051+441.02+544.843+476.406C537.634+511.792+523.91+505.723+523.91+505.723" fill="none" stroke-linecap="round" opacity="1" stroke-linejoin="round"/>
<path stroke="#ffffff" stroke-width="17" d="M519.035+453.674L506.921+458.663L507.024+505.396L523.91+505.396" fill="none" stroke-linecap="round" opacity="1" stroke-linejoin="round"/>
</g>
</svg>
